<svg width="19" height="19" viewBox="0 0 19 19" fill="none" xmlns="http://www.w3.org/2000/svg">
<path d="M17.6562 18.75C15.4861 18.75 13.342 18.2769 11.224 17.3307C9.1059 16.3845 7.17882 15.0434 5.44271 13.3073C3.7066 11.5712 2.36545 9.6441 1.41927 7.52604C0.47309 5.40799 0 3.26389 0 1.09375C0 0.78125 0.104167 0.520833 0.3125 0.3125C0.520833 0.104167 0.78125 0 1.09375 0H5.3125C5.55556 0 5.77257 0.0824653 5.96354 0.247396C6.15451 0.412326 6.26736 0.607639 6.30208 0.833333L6.97917 4.47917C7.01389 4.75694 7.00521 4.99132 6.95312 5.18229C6.90104 5.37326 6.80556 5.53819 6.66667 5.67708L4.14062 8.22917C4.48785 8.87153 4.90017 9.49219 5.3776 10.0911C5.85503 10.6901 6.38021 11.2674 6.95312 11.8229C7.49132 12.3611 8.05556 12.8602 8.64583 13.3203C9.23611 13.7804 9.86111 14.2014 10.5208 14.5833L12.9687 12.1354C13.125 11.9792 13.329 11.862 13.5807 11.7839C13.8325 11.7057 14.0799 11.684 14.3229 11.7188L17.9167 12.4479C18.1597 12.5174 18.3594 12.6432 18.5156 12.8255C18.6719 13.0078 18.75 13.2118 18.75 13.4375V17.6562C18.75 17.9688 18.6458 18.2292 18.4375 18.4375C18.2292 18.6458 17.9688 18.75 17.6562 18.75Z" fill="#D8790D"/>
</svg>
