<svg width="16" height="16" viewBox="0 0 16 16" fill="none" xmlns="http://www.w3.org/2000/svg">
<path d="M11.2271 12.0775L3.92211 4.77251C3.21961 5.65751 2.79961 6.78001 2.79961 8.00001C2.79961 10.8725 5.12711 13.2 7.99961 13.2C9.21961 13.2 10.3421 12.78 11.2271 12.0775ZM12.0746 11.23C12.7796 10.3425 13.1996 9.22001 13.1996 8.00001C13.1996 5.12751 10.8721 2.80001 7.99961 2.80001C6.77961 2.80001 5.65711 3.22001 4.77211 3.92251L12.0771 11.2275L12.0746 11.23ZM1.59961 8.00001C1.59961 6.30262 2.27389 4.67476 3.47413 3.47452C4.67436 2.27429 6.30222 1.60001 7.99961 1.60001C9.69699 1.60001 11.3249 2.27429 12.5251 3.47452C13.7253 4.67476 14.3996 6.30262 14.3996 8.00001C14.3996 9.69739 13.7253 11.3253 12.5251 12.5255C11.3249 13.7257 9.69699 14.4 7.99961 14.4C6.30222 14.4 4.67436 13.7257 3.47413 12.5255C2.27389 11.3253 1.59961 9.69739 1.59961 8.00001Z" fill="#860000"/>
</svg>
