<svg width="30" height="30" viewBox="0 0 30 30" fill="none" xmlns="http://www.w3.org/2000/svg">
<path d="M19.1667 14.5833C18.5833 14.5833 18.0903 14.3819 17.6875 13.9792C17.2847 13.5764 17.0833 13.0833 17.0833 12.5C17.0833 11.9167 17.2847 11.4236 17.6875 11.0208C18.0903 10.6181 18.5833 10.4167 19.1667 10.4167C19.75 10.4167 20.2431 10.6181 20.6458 11.0208C21.0486 11.4236 21.25 11.9167 21.25 12.5C21.25 13.0833 21.0486 13.5764 20.6458 13.9792C20.2431 14.3819 19.75 14.5833 19.1667 14.5833ZM10.8333 14.5833C10.25 14.5833 9.75694 14.3819 9.35417 13.9792C8.95139 13.5764 8.75 13.0833 8.75 12.5C8.75 11.9167 8.95139 11.4236 9.35417 11.0208C9.75694 10.6181 10.25 10.4167 10.8333 10.4167C11.4167 10.4167 11.9097 10.6181 12.3125 11.0208C12.7153 11.4236 12.9167 11.9167 12.9167 12.5C12.9167 13.0833 12.7153 13.5764 12.3125 13.9792C11.9097 14.3819 11.4167 14.5833 10.8333 14.5833ZM15 23.3333C13.3333 23.3333 11.8264 22.875 10.4792 21.9583C9.13194 21.0417 8.13889 19.8333 7.5 18.3333H22.5C21.8611 19.8333 20.8681 21.0417 19.5208 21.9583C18.1736 22.875 16.6667 23.3333 15 23.3333ZM15 30C12.9167 30 10.9653 29.6042 9.14583 28.8125C7.32639 28.0208 5.74306 26.9514 4.39583 25.6042C3.04861 24.2569 1.97917 22.6736 1.1875 20.8542C0.395833 19.0347 0 17.0833 0 15C0 12.9167 0.395833 10.9653 1.1875 9.14583C1.97917 7.32639 3.04861 5.74306 4.39583 4.39583C5.74306 3.04861 7.32639 1.97917 9.14583 1.1875C10.9653 0.395833 12.9167 0 15 0C17.0833 0 19.0347 0.395833 20.8542 1.1875C22.6736 1.97917 24.2569 3.04861 25.6042 4.39583C26.9514 5.74306 28.0208 7.32639 28.8125 9.14583C29.6042 10.9653 30 12.9167 30 15C30 17.0833 29.6042 19.0347 28.8125 20.8542C28.0208 22.6736 26.9514 24.2569 25.6042 25.6042C24.2569 26.9514 22.6736 28.0208 20.8542 28.8125C19.0347 29.6042 17.0833 30 15 30ZM15 26.6667C18.2222 26.6667 20.9722 25.5278 23.25 23.25C25.5278 20.9722 26.6667 18.2222 26.6667 15C26.6667 11.7778 25.5278 9.02778 23.25 6.75C20.9722 4.47222 18.2222 3.33333 15 3.33333H14.5C14.3333 3.33333 14.1667 3.36111 14 3.41667C13.8333 3.58333 13.7222 3.76389 13.6667 3.95833C13.6111 4.15278 13.5833 4.36111 13.5833 4.58333C13.5833 5.16667 13.7847 5.65972 14.1875 6.0625C14.5903 6.46528 15.0833 6.66667 15.6667 6.66667C15.9167 6.66667 16.1458 6.625 16.3542 6.54167C16.5625 6.45833 16.7778 6.41667 17 6.41667C17.3333 6.41667 17.6111 6.54167 17.8333 6.79167C18.0556 7.04167 18.1667 7.33333 18.1667 7.66667C18.1667 8.30556 17.8681 8.71528 17.2708 8.89583C16.6736 9.07639 16.1389 9.16667 15.6667 9.16667C14.4167 9.16667 13.3403 8.71528 12.4375 7.8125C11.5347 6.90972 11.0833 5.83333 11.0833 4.58333V4.33333C11.0833 4.25 11.0972 4.13889 11.125 4C8.81944 4.83333 6.94444 6.23611 5.5 8.20833C4.05556 10.1806 3.33333 12.4444 3.33333 15C3.33333 18.2222 4.47222 20.9722 6.75 23.25C9.02778 25.5278 11.7778 26.6667 15 26.6667Z" fill="#7A4090"/>
</svg>
