<svg width="20" height="21" viewBox="0 0 20 21" fill="none" xmlns="http://www.w3.org/2000/svg">
<g clip-path="url(#clip0_10072_5239)">
<path d="M0 10.5C0 7.84784 1.05357 5.3043 2.92893 3.42893C4.8043 1.55357 7.34784 0.5 10 0.5C12.6522 0.5 15.1957 1.55357 17.0711 3.42893C18.9464 5.3043 20 7.84784 20 10.5C20 13.1522 18.9464 15.6957 17.0711 17.5711C15.1957 19.4464 12.6522 20.5 10 20.5C7.34784 20.5 4.8043 19.4464 2.92893 17.5711C1.05357 15.6957 0 13.1522 0 10.5ZM7.35547 6.24609C7.05859 6.41016 6.875 6.72656 6.875 7.0625V13.9375C6.875 14.2773 7.05859 14.5898 7.35547 14.7539C7.65234 14.918 8.01172 14.9141 8.30469 14.7344L13.9297 11.2969C14.207 11.125 14.3789 10.8242 14.3789 10.4961C14.3789 10.168 14.207 9.86719 13.9297 9.69531L8.30469 6.25781C8.01562 6.08203 7.65234 6.07422 7.35547 6.23828V6.24609Z" fill="#005598"/>
</g>
<defs>
<clipPath id="clip0_10072_5239">
<rect width="20" height="20" fill="white" transform="translate(0 0.5)"/>
</clipPath>
</defs>
</svg>
