<svg width="32" height="32" viewBox="0 0 32 32" fill="none" xmlns="http://www.w3.org/2000/svg">
<g clip-path="url(#clip0_8083_4209)">
<path d="M26.15 9.86875C28.3562 9.35 30 7.36875 30 5C30 2.2375 27.7625 0 25 0C22.2875 0 20.0812 2.15625 20 4.84375L8.5125 9.44375C7.60625 8.55 6.36875 8 5 8C2.2375 8 0 10.2375 0 13C0 15.7625 2.2375 18 5 18C5.7625 18 6.4875 17.8312 7.13125 17.525L16.2313 25.4875C16.0813 25.9625 16 26.475 16 27C16 29.7625 18.2375 32 21 32C23.7625 32 26 29.7625 26 27C26 25.2687 25.125 23.7437 23.7875 22.85L26.15 9.86875ZM9.76875 14.5125C9.90625 14.0813 9.9875 13.625 10 13.1562L21.4875 8.5625C21.7125 8.78125 21.95 8.98125 22.2125 9.15625L19.85 22.1313C19.5063 22.2125 19.175 22.325 18.8625 22.475L9.76875 14.5125Z" fill="#18212D"/>
</g>
<defs>
<clipPath id="clip0_8083_4209">
<rect width="32" height="32" fill="white"/>
</clipPath>
</defs>
</svg>
