<svg width="32" height="32" viewBox="0 0 32 32" fill="none" xmlns="http://www.w3.org/2000/svg">
<path d="M20.2105 1.8351H0V28.188H14.3158V16.6586H11.7895V13.3645H14.3158V10.0704H11.7895V6.77627H14.3158V5.95275H20.2105V1.8351ZM12.6316 19.9527V25.7175H7.57895V19.9527H12.6316ZM5.05263 6.77627H8.42105V10.0704H5.05263V6.77627ZM5.05263 13.3645H8.42105V16.6586H5.05263V13.3645ZM16.8421 8.42333V29.8351H32V8.42333H16.8421ZM20.6316 12.9527H28.2105V15.4233H20.6316V12.9527ZM21.8947 17.8939H28.2105V20.3645H20.6316V17.8939H21.8947ZM20.6316 22.8351H26.5263V25.3057H20.6316V22.8351Z" fill="#18212D"/>
</svg>
