<svg width="20" height="20" viewBox="0 0 20 20" fill="none" xmlns="http://www.w3.org/2000/svg">
<path d="M4 16.5H5.5V18H4C2.89688 18 2 17.1031 2 16V4C2 2.89688 2.89688 2 4 2H9.17188C9.70312 2 10.2125 2.20938 10.5875 2.58438L13.4156 5.4125C13.7906 5.7875 14 6.29688 14 6.82812V11.5H12.5V7H10C9.44688 7 9 6.55312 9 6V3.5H4C3.725 3.5 3.5 3.725 3.5 4V16C3.5 16.275 3.725 16.5 4 16.5ZM7.5 13H8.5C9.32812 13 10 13.6719 10 14.5V16.5C10 17.3281 9.32812 18 8.5 18H7.5C7.225 18 7 17.775 7 17.5V13.5C7 13.225 7.225 13 7.5 13ZM8 17H8.5C8.775 17 9 16.775 9 16.5V14.5C9 14.225 8.775 14 8.5 14H8V17ZM16.25 13H16.75C17.4406 13 18 13.5594 18 14.25V14.5C18 14.775 17.775 15 17.5 15C17.225 15 17 14.775 17 14.5V14.25C17 14.1125 16.8875 14 16.75 14H16.25C16.1125 14 16 14.1125 16 14.25V16.75C16 16.8875 16.1125 17 16.25 17H16.75C16.8875 17 17 16.8875 17 16.75V16.5C17 16.225 17.225 16 17.5 16C17.775 16 18 16.225 18 16.5V16.75C18 17.4406 17.4406 18 16.75 18H16.25C15.5594 18 15 17.4406 15 16.75V14.25C15 13.5594 15.5594 13 16.25 13ZM11 14.25C11 13.5594 11.5594 13 12.25 13H12.75C13.4406 13 14 13.5594 14 14.25V16.75C14 17.4406 13.4406 18 12.75 18H12.25C11.5594 18 11 17.4406 11 16.75V14.25ZM12.25 14C12.1125 14 12 14.1125 12 14.25V16.75C12 16.8875 12.1125 17 12.25 17H12.75C12.8875 17 13 16.8875 13 16.75V14.25C13 14.1125 12.8875 14 12.75 14H12.25Z" fill="#003B71"/>
</svg>
