<svg width="17" height="17" viewBox="0 0 17 17" fill="none" xmlns="http://www.w3.org/2000/svg">
<path d="M8.5 0L16.1925 4.59C16.4475 4.74583 16.6458 4.95833 16.7875 5.2275C16.9292 5.49667 17 5.78 17 6.0775V15.3C17 15.7675 16.8335 16.1677 16.5006 16.5006C16.1677 16.8335 15.7675 17 15.3 17H1.7C1.2325 17 0.832292 16.8335 0.499375 16.5006C0.166458 16.1677 0 15.7675 0 15.3V6.0775C0 5.78 0.0708333 5.49667 0.2125 5.2275C0.354167 4.95833 0.5525 4.74583 0.8075 4.59L8.5 0ZM8.5 9.9025L15.13 5.95L8.5 1.9975L1.87 5.95L8.5 9.9025Z" fill="#D8790D"/>
</svg>
