<svg width="32" height="32" viewBox="0 0 32 32" fill="none" xmlns="http://www.w3.org/2000/svg">
<path d="M4.32359 7.99067C4.32359 6.18129 5.05243 4.44602 6.34976 3.16659C7.64709 1.88717 9.40664 1.1684 11.2413 1.1684C13.076 1.1684 14.8356 1.88717 16.1329 3.16659C17.4303 4.44602 18.1591 6.18129 18.1591 7.99067C18.1591 9.80005 17.4303 11.5353 16.1329 12.8147C14.8356 14.0942 13.076 14.8129 11.2413 14.8129C9.40664 14.8129 7.64709 14.0942 6.34976 12.8147C5.05243 11.5353 4.32359 9.80005 4.32359 7.99067ZM12.933 17.3713C12.7222 17.7444 12.1547 18.7411 11.2305 20.372L13.268 21.6246L11.2305 22.8718C11.9115 24.0763 12.9654 25.9365 14.3922 28.4575H0L3.45888 17.3713H12.933ZM20.7641 13.102H25.9524V15.3086C26.5523 15.5485 27.1089 15.8683 27.6116 16.2574L29.5518 15.1541L32 19.4979L30.1949 20.6119C30.2435 20.9477 30.2706 21.2888 30.2706 21.6352C30.2706 21.9817 30.2435 22.3228 30.1949 22.6532L32 23.7619L29.5518 28.1164L27.6116 27.0131C27.1089 27.4022 26.5523 27.722 25.9524 27.9618V30.1684H20.7641V27.9725C20.1588 27.7326 19.6021 27.4128 19.0941 27.0238L17.1647 28.1217L14.7002 23.7672L16.5053 22.6639C16.4567 22.3281 16.4297 21.987 16.4297 21.6406C16.4297 21.2941 16.4567 20.9477 16.5053 20.6119L14.7002 19.5033L17.1647 15.1594L19.0941 16.2574C19.5967 15.8683 20.1588 15.5485 20.7641 15.3086V13.1127V13.102ZM26.1631 21.6406C26.1631 20.9055 25.8671 20.2005 25.34 19.6808C24.813 19.161 24.0982 18.869 23.3528 18.869C22.6075 18.869 21.8926 19.161 21.3656 19.6808C20.8386 20.2005 20.5425 20.9055 20.5425 21.6406C20.5425 22.3756 20.8386 23.0806 21.3656 23.6003C21.8926 24.1201 22.6075 24.4121 23.3528 24.4121C24.0982 24.4121 24.813 24.1201 25.34 23.6003C25.8671 23.0806 26.1631 22.3756 26.1631 21.6406Z" fill="#18212D"/>
</svg>
