<svg width="20" height="20" viewBox="0 0 20 20" fill="none" xmlns="http://www.w3.org/2000/svg">
<path d="M5.5 16V4C5.5 3.725 5.725 3.5 6 3.5H11V6C11 6.55312 11.4469 7 12 7H14.5V16C14.5 16.275 14.275 16.5 14 16.5H6C5.725 16.5 5.5 16.275 5.5 16ZM6 2C4.89688 2 4 2.89688 4 4V16C4 17.1031 4.89688 18 6 18H14C15.1031 18 16 17.1031 16 16V6.82812C16 6.29688 15.7906 5.7875 15.4156 5.4125L12.5844 2.58438C12.2094 2.20938 11.7031 2 11.1719 2H6ZM8.84062 9.29063C8.5875 8.9625 8.11562 8.90625 7.7875 9.15938C7.45937 9.4125 7.40313 9.88437 7.65625 10.2125L9.05 12L7.65937 13.7906C7.40625 14.1187 7.4625 14.5875 7.79063 14.8438C8.11875 15.1 8.5875 15.0406 8.84375 14.7125L10 13.2219L11.1594 14.7094C11.4125 15.0375 11.8844 15.0938 12.2125 14.8406C12.5406 14.5875 12.5969 14.1156 12.3438 13.7875L10.95 12L12.3406 10.2094C12.5938 9.88125 12.5375 9.4125 12.2094 9.15625C11.8813 8.9 11.4125 8.95937 11.1562 9.2875L10 10.7781L8.84062 9.29063Z" fill="#003B71"/>
</svg>
