<svg width="19" height="20" viewBox="0 0 19 20" fill="none" xmlns="http://www.w3.org/2000/svg">
<g clip-path="url(#clip0_10072_4605)">
<path d="M0.303802 3.44252C0.303802 3.62249 0.375296 3.79509 0.502552 3.92234C0.629808 4.0496 0.802406 4.12109 0.982374 4.12109L18.0172 4.12109C18.1972 4.12109 18.3698 4.0496 18.4971 3.92234C18.6243 3.79509 18.6958 3.62249 18.6958 3.44252C18.6958 3.26255 18.6243 3.08996 18.4971 2.9627C18.3698 2.83544 18.1972 2.76395 18.0172 2.76395L0.982374 2.76395C0.802406 2.76395 0.629808 2.83544 0.502552 2.9627C0.375296 3.08996 0.303802 3.26255 0.303802 3.44252Z" fill="black"/>
<path d="M4.1204 1.31445V5.57045C4.1204 5.75042 4.19189 5.92302 4.31914 6.05027C4.4464 6.17753 4.619 6.24902 4.79897 6.24902C4.97894 6.24902 5.15153 6.17753 5.27879 6.05027C5.40605 5.92302 5.47754 5.75042 5.47754 5.57045V1.31445C5.47754 1.13448 5.40605 0.961885 5.27879 0.834629C5.15153 0.707372 4.97894 0.63588 4.79897 0.63588C4.619 0.63588 4.4464 0.707372 4.31914 0.834629C4.19189 0.961885 4.1204 1.13448 4.1204 1.31445Z" fill="black"/>
<path d="M0.304291 13.7999C0.304291 13.9799 0.375784 14.1525 0.50304 14.2798C0.630297 14.407 0.802895 14.4785 0.982862 14.4785L18.0177 14.4785C18.1977 14.4785 18.3703 14.407 18.4975 14.2798C18.6248 14.1525 18.6963 13.9799 18.6963 13.7999C18.6963 13.62 18.6248 13.4474 18.4975 13.3201C18.3703 13.1929 18.1977 13.1214 18.0177 13.1214L0.982862 13.1214C0.802895 13.1214 0.630297 13.1929 0.50304 13.3201C0.375784 13.4474 0.304291 13.62 0.304291 13.7999Z" fill="black"/>
<path d="M13.5227 11.6719V15.9279C13.5227 16.1078 13.5942 16.2804 13.7215 16.4077C13.8487 16.535 14.0213 16.6064 14.2013 16.6064C14.3813 16.6064 14.5539 16.535 14.6811 16.4077C14.8084 16.2804 14.8799 16.1078 14.8799 15.9279V11.6719C14.8799 11.4919 14.8084 11.3193 14.6811 11.1921C14.5539 11.0648 14.3813 10.9933 14.2013 10.9933C14.0213 10.9933 13.8487 11.0648 13.7215 11.1921C13.5942 11.3193 13.5227 11.4919 13.5227 11.6719Z" fill="#1C2F5E"/>
</g>
<defs>
<clipPath id="clip0_10072_4605">
<rect width="19" height="19" fill="white" transform="matrix(0 -1 -1 0 19 19.5)"/>
</clipPath>
</defs>
</svg>
