<svg width="20" height="20" viewBox="0 0 20 20" fill="none" xmlns="http://www.w3.org/2000/svg">
<path d="M17.7875 3.84684L18.1594 4.21871C18.4531 4.51246 18.4531 4.98746 18.1594 5.27809L17.5 5.94059L16.0719 4.51246L16.7219 3.85309C17.0156 3.55621 17.4906 3.55621 17.7875 3.84996V3.84684ZM11.2469 9.39996L15.0188 5.57809L16.4406 6.99996L12.6438 10.8C12.5406 10.9031 12.4094 10.975 12.2688 11.0031L10.7188 11.3281L11.0437 9.77496C11.0719 9.63434 11.1437 9.50309 11.2437 9.40309L11.2469 9.39996ZM15.6562 2.79684L10.1781 8.34684C9.875 8.65309 9.66562 9.04371 9.57812 9.46559L9.01562 12.1437C8.9625 12.3906 9.04062 12.65 9.21875 12.8281C9.39688 13.0062 9.65625 13.0843 9.90312 13.0312L12.575 12.4718C13.0031 12.3812 13.3938 12.1687 13.7031 11.8593L19.2219 6.34059C20.1 5.46246 20.1 4.03746 19.2219 3.15934L18.8469 2.78746C17.9656 1.90309 16.5312 1.90934 15.6562 2.79684ZM2.25 5.99996C1.00625 5.99996 0 7.00621 0 8.24996V15.75C0 16.9937 1.00625 18 2.25 18H15.75C16.9937 18 18 16.9937 18 15.75V11.75C18 11.3343 17.6656 11 17.25 11C16.8344 11 16.5 11.3343 16.5 11.75V15.75C16.5 16.1656 16.1656 16.5 15.75 16.5H2.25C1.83438 16.5 1.5 16.1656 1.5 15.75V8.24996C1.5 7.83434 1.83438 7.49996 2.25 7.49996H8.25C8.66562 7.49996 9 7.16559 9 6.74996C9 6.33434 8.66562 5.99996 8.25 5.99996H2.25ZM4 13C4.26522 13 4.51957 12.8946 4.70711 12.7071C4.89464 12.5195 5 12.2652 5 12C5 11.7347 4.89464 11.4804 4.70711 11.2929C4.51957 11.1053 4.26522 11 4 11C3.73478 11 3.48043 11.1053 3.29289 11.2929C3.10536 11.4804 3 11.7347 3 12C3 12.2652 3.10536 12.5195 3.29289 12.7071C3.48043 12.8946 3.73478 13 4 13ZM8 12C8 11.7347 7.89464 11.4804 7.70711 11.2929C7.51957 11.1053 7.26522 11 7 11C6.73478 11 6.48043 11.1053 6.29289 11.2929C6.10536 11.4804 6 11.7347 6 12C6 12.2652 6.10536 12.5195 6.29289 12.7071C6.48043 12.8946 6.73478 13 7 13C7.26522 13 7.51957 12.8946 7.70711 12.7071C7.89464 12.5195 8 12.2652 8 12Z" fill="#003B71"/>
</svg>
