<svg width="20" height="20" viewBox="0 0 20 20" fill="none" xmlns="http://www.w3.org/2000/svg">
<path d="M10.4842 2.178C10.2029 1.9405 9.79353 1.9405 9.51228 2.178L1.26228 9.178C0.946657 9.44675 0.909157 9.91863 1.17478 10.2343C1.44041 10.5499 1.91541 10.5874 2.23103 10.3218L2.99978 9.67175V15.4999C2.99978 16.8811 4.11853 17.9999 5.49978 17.9999H14.4998C15.881 17.9999 16.9998 16.8811 16.9998 15.4999V9.67175L17.7654 10.3218C18.081 10.5905 18.556 10.5499 18.8217 10.2343C19.0873 9.91863 19.0498 9.44363 18.7342 9.178L10.4842 2.178ZM4.49978 15.4999V8.39988L9.99978 3.73425L15.4998 8.39988V15.4999C15.4998 16.053 15.0529 16.4999 14.4998 16.4999H12.9998V11.7499C12.9998 11.0593 12.4404 10.4999 11.7498 10.4999H8.24978C7.55916 10.4999 6.99978 11.0593 6.99978 11.7499V16.4999H5.49978C4.94666 16.4999 4.49978 16.053 4.49978 15.4999ZM8.49978 16.4999V11.9999H11.4998V16.4999H8.49978Z" fill="#003B71"/>
</svg>
