<svg width="36" height="32" viewBox="0 0 36 32" fill="none" xmlns="http://www.w3.org/2000/svg">
<g clip-path="url(#clip0_8083_4222)">
<path d="M6 2H34V26H6V2ZM3 8V29H28V32H0V8H3ZM12 10C12.5304 10 13.0391 9.78929 13.4142 9.41421C13.7893 9.03914 14 8.53043 14 8C14 7.46957 13.7893 6.96086 13.4142 6.58579C13.0391 6.21071 12.5304 6 12 6C11.4696 6 10.9609 6.21071 10.5858 6.58579C10.2107 6.96086 10 7.46957 10 8C10 8.53043 10.2107 9.03914 10.5858 9.41421C10.9609 9.78929 11.4696 10 12 10ZM15 13L9 22H31L23 9L17.8813 17.3188L15 13Z" fill="#18212D"/>
</g>
<defs>
<clipPath id="clip0_8083_4222">
<rect width="36" height="32" fill="white"/>
</clipPath>
</defs>
</svg>
