<svg width="15" height="15" viewBox="0 0 15 15" fill="none" xmlns="http://www.w3.org/2000/svg">
<path fill-rule="evenodd" clip-rule="evenodd" d="M7.49924 1.3463C8.49786 1.30885 9.49786 1.33668 10.4929 1.42961C10.9756 1.42343 11.4552 1.50795 11.9067 1.67879C12.5297 1.96905 13.0304 2.46976 13.3206 3.09281C13.4914 3.54441 13.576 4.02406 13.5698 4.50684C13.5698 5.25513 13.6531 5.50507 13.6531 7.50076C13.6905 8.49949 13.6627 9.49959 13.5698 10.4947C13.576 10.9775 13.4914 11.4571 13.3206 11.9087C13.0304 12.5318 12.5297 13.0325 11.9067 13.3227C11.4552 13.4936 10.9756 13.5781 10.4929 13.5719C9.74464 13.5719 9.49472 13.6552 7.49924 13.6552C6.50061 13.6927 5.50061 13.6649 4.50562 13.5719C4.02288 13.5781 3.54328 13.4936 3.09173 13.3227C2.46874 13.0325 1.96808 12.5318 1.67785 11.9087C1.50703 11.4571 1.42252 10.9775 1.4287 10.4947C1.4287 9.7464 1.3454 9.49646 1.3454 7.50076C1.30817 6.50177 1.33625 5.50141 1.42946 4.50608C1.42328 4.02329 1.5078 3.54364 1.67861 3.09205C1.82386 2.78364 2.02083 2.50238 2.26098 2.26045C2.45597 1.96953 2.75248 1.76184 3.0925 1.67802C3.54404 1.50719 4.02365 1.42266 4.50638 1.42885C5.50138 1.33591 6.50138 1.30808 7.5 1.34553M7.49924 0.0155807C6.47312 -0.0209589 5.44572 0.00686664 4.42308 0.0988938C3.79804 0.0974032 3.17799 0.210081 2.59344 0.431382C2.08874 0.595927 1.63194 0.881421 1.26286 1.26298C0.881331 1.63211 0.595866 2.08895 0.431338 2.5937C0.170233 3.16655 0.0559724 3.79544 0.0988837 4.42353C0.00686594 5.44627 -0.0209568 6.47378 0.0155791 7.5C-0.0209888 8.52648 0.00683399 9.55424 0.0988837 10.5772C0.0973933 11.2023 0.21006 11.8224 0.431338 12.4071C0.595866 12.9118 0.881331 13.3687 1.26286 13.7378C1.63203 14.1191 2.08882 14.4043 2.59344 14.5686C3.17799 14.7899 3.79804 14.9026 4.42308 14.9011C5.44597 14.9932 6.47363 15.021 7.5 14.9844C8.52637 15.021 9.55403 14.9932 10.5769 14.9011C11.202 14.9026 11.822 14.7899 12.4066 14.5686C12.9075 14.396 13.3625 14.1116 13.7371 13.737C14.1117 13.3623 14.3961 12.9072 14.5687 12.4063C14.7899 11.8217 14.9026 11.2016 14.9011 10.5765C14.9011 9.74487 14.9844 9.49569 14.9844 7.49924C15.021 6.47276 14.9932 5.445 14.9011 4.422C14.9026 3.7969 14.7899 3.17679 14.5687 2.59217C14.4041 2.08743 14.1187 1.63058 13.7371 1.26146C13.3677 0.880343 12.9106 0.595375 12.4058 0.431382C11.8212 0.210081 11.2012 0.0974032 10.5762 0.0988938C9.55326 0.00683469 8.52561 -0.0209909 7.49924 0.0155807ZM7.49924 3.67448C6.99525 3.66664 6.49482 3.76013 6.02766 3.94941C5.56049 4.13869 5.13611 4.41991 4.77969 4.77636C4.42328 5.13281 4.14209 5.55724 3.95283 6.02445C3.76357 6.49166 3.67008 6.99214 3.67792 7.49618C3.67792 8.25204 3.90204 8.99093 4.32193 9.6194C4.74182 10.2479 5.33863 10.7377 6.03688 11.027C6.73514 11.3162 7.50347 11.3919 8.24474 11.2444C8.986 11.097 9.66689 10.733 10.2013 10.1985C10.7357 9.66405 11.0997 8.98309 11.2471 8.24176C11.3946 7.50042 11.3189 6.732 11.0297 6.03368C10.7404 5.33535 10.2507 4.73848 9.62224 4.31855C8.99383 3.89862 8.25502 3.67448 7.49924 3.67448ZM7.49924 9.99481C7.16999 10.0008 6.84291 9.9404 6.53754 9.81715C6.23217 9.6939 5.95478 9.51036 5.72193 9.27749C5.48908 9.04461 5.30556 8.76719 5.18232 8.46179C5.05909 8.15639 4.99867 7.82928 5.00468 7.5C4.99867 7.17072 5.05909 6.84361 5.18232 6.53821C5.30556 6.23281 5.48908 5.95539 5.72193 5.72251C5.95478 5.48964 6.23217 5.3061 6.53754 5.18285C6.84291 5.0596 7.16999 4.99918 7.49924 5.00519C7.82848 4.99918 8.15556 5.0596 8.46093 5.18285C8.7663 5.3061 9.04369 5.48964 9.27654 5.72251C9.50939 5.95539 9.69291 6.23281 9.81615 6.53821C9.93938 6.84361 9.9998 7.17072 9.99379 7.5C9.9998 7.82928 9.93938 8.15639 9.81615 8.46179C9.69291 8.76719 9.50939 9.04461 9.27654 9.27749C9.04369 9.51036 8.7663 9.6939 8.46093 9.81715C8.15556 9.9404 7.82848 10.0008 7.49924 9.99481ZM11.491 2.5937C11.3096 2.5937 11.1323 2.64749 10.9815 2.74828C10.8306 2.84906 10.7131 2.99231 10.6437 3.15991C10.5743 3.32751 10.5561 3.51193 10.5915 3.68985C10.6269 3.86777 10.7142 4.0312 10.8425 4.15947C10.9707 4.28775 11.1342 4.3751 11.3121 4.41049C11.49 4.44588 11.6744 4.42772 11.8419 4.3583C12.0095 4.28888 12.1528 4.17132 12.2535 4.02048C12.3543 3.86965 12.4081 3.69232 12.4081 3.51091C12.4067 3.26808 12.3096 3.0356 12.1379 2.8639C11.9662 2.69219 11.7338 2.5951 11.491 2.5937Z" fill="black"/>
</svg>
