<svg width="15" height="15" viewBox="0 0 15 15" fill="none" xmlns="http://www.w3.org/2000/svg">
<g clip-path="url(#clip0_11739_414)">
<path d="M3.49149 4.82568H0.480217C0.346572 4.82568 0.238281 4.93402 0.238281 5.06762V14.7416C0.238281 14.8752 0.346572 14.9835 0.480217 14.9835H3.49149C3.62514 14.9835 3.73343 14.8752 3.73343 14.7416V5.06762C3.73343 4.93402 3.62514 4.82568 3.49149 4.82568Z" fill="black"/>
<path d="M1.98706 0.0164795C0.891387 0.0164795 0 0.906899 0 2.00137C0 3.09632 0.891387 3.98708 1.98706 3.98708C3.08187 3.98708 3.97253 3.09627 3.97253 2.00137C3.97258 0.906899 3.08187 0.0164795 1.98706 0.0164795Z" fill="black"/>
<path d="M11.1511 4.58521C9.94171 4.58521 9.04766 5.10512 8.50539 5.69588V5.06758C8.50539 4.93398 8.3971 4.82564 8.26345 4.82564H5.37963C5.24599 4.82564 5.1377 4.93398 5.1377 5.06758V14.7415C5.1377 14.8752 5.24599 14.9834 5.37963 14.9834H8.38432C8.51797 14.9834 8.62626 14.8752 8.62626 14.7415V9.95516C8.62626 8.34227 9.06436 7.71391 10.1887 7.71391C11.4132 7.71391 11.5105 8.72124 11.5105 10.0381V14.7416C11.5105 14.8752 11.6188 14.9835 11.7524 14.9835H14.7582C14.8919 14.9835 15.0001 14.8752 15.0001 14.7416V9.43524C15.0001 7.03693 14.5428 4.58521 11.1511 4.58521Z" fill="black"/>
</g>
<defs>
<clipPath id="clip0_11739_414">
<rect width="15" height="15" fill="white"/>
</clipPath>
</defs>
</svg>
