<svg width="20" height="20" viewBox="0 0 20 20" fill="none" xmlns="http://www.w3.org/2000/svg">
<path d="M11.5 2.75C11.5 3.16562 11.8344 3.5 12.25 3.5H15.4406L8.46875 10.4688C8.175 10.7625 8.175 11.2375 8.46875 11.5281C8.7625 11.8187 9.2375 11.8219 9.52812 11.5281L16.4969 4.55938L16.5 7.75C16.5 8.16563 16.8344 8.5 17.25 8.5C17.6656 8.5 18 8.16563 18 7.75V2.75C18 2.33437 17.6656 2 17.25 2H12.25C11.8344 2 11.5 2.33437 11.5 2.75ZM4.25 3C3.00625 3 2 4.00625 2 5.25V15.75C2 16.9937 3.00625 18 4.25 18H14.75C15.9937 18 17 16.9937 17 15.75V11.75C17 11.3344 16.6656 11 16.25 11C15.8344 11 15.5 11.3344 15.5 11.75V15.75C15.5 16.1656 15.1656 16.5 14.75 16.5H4.25C3.83438 16.5 3.5 16.1656 3.5 15.75V5.25C3.5 4.83437 3.83438 4.5 4.25 4.5H8.25C8.66563 4.5 9 4.16563 9 3.75C9 3.33438 8.66563 3 8.25 3H4.25Z" fill="#003B71"/>
</svg>
