<svg width="17" height="21" viewBox="0 0 17 21" fill="none" xmlns="http://www.w3.org/2000/svg">
<path d="M8.33333 10.4167C8.90625 10.4167 9.3967 10.2127 9.80469 9.80469C10.2127 9.3967 10.4167 8.90625 10.4167 8.33333C10.4167 7.76042 10.2127 7.26997 9.80469 6.86198C9.3967 6.45399 8.90625 6.25 8.33333 6.25C7.76042 6.25 7.26997 6.45399 6.86198 6.86198C6.45399 7.26997 6.25 7.76042 6.25 8.33333C6.25 8.90625 6.45399 9.3967 6.86198 9.80469C7.26997 10.2127 7.76042 10.4167 8.33333 10.4167ZM8.33333 20.8333C5.53819 18.4549 3.45052 16.2457 2.07031 14.2057C0.690104 12.1658 0 10.2778 0 8.54167C0 5.9375 0.837674 3.86285 2.51302 2.31771C4.18837 0.77257 6.12847 0 8.33333 0C10.5382 0 12.4783 0.77257 14.1536 2.31771C15.829 3.86285 16.6667 5.9375 16.6667 8.54167C16.6667 10.2778 15.9766 12.1658 14.5964 14.2057C13.2161 16.2457 11.1285 18.4549 8.33333 20.8333Z" fill="#D8790D"/>
</svg>
