<svg width="20" height="20" viewBox="0 0 20 20" fill="none" xmlns="http://www.w3.org/2000/svg">
<path d="M16 4.5C16.275 4.5 16.5 4.725 16.5 5V14.9937L16.3438 14.7906L12.0938 9.29063C11.9531 9.10625 11.7312 9 11.5 9C11.2688 9 11.05 9.10625 10.9062 9.29063L8.3125 12.6469L7.35938 11.3125C7.21875 11.1156 6.99375 11 6.75 11C6.50625 11 6.28125 11.1156 6.14062 11.3156L3.64062 14.8156L3.5 15.0094V15V5C3.5 4.725 3.725 4.5 4 4.5H16ZM4 3C2.89688 3 2 3.89688 2 5V15C2 16.1031 2.89688 17 4 17H16C17.1031 17 18 16.1031 18 15V5C18 3.89688 17.1031 3 16 3H4ZM6.5 9C6.69698 9 6.89204 8.9612 7.07403 8.88582C7.25601 8.81044 7.42137 8.69995 7.56066 8.56066C7.69995 8.42137 7.81044 8.25601 7.88582 8.07403C7.9612 7.89204 8 7.69698 8 7.5C8 7.30302 7.9612 7.10796 7.88582 6.92597C7.81044 6.74399 7.69995 6.57863 7.56066 6.43934C7.42137 6.30005 7.25601 6.18956 7.07403 6.11418C6.89204 6.0388 6.69698 6 6.5 6C6.30302 6 6.10796 6.0388 5.92597 6.11418C5.74399 6.18956 5.57863 6.30005 5.43934 6.43934C5.30005 6.57863 5.18956 6.74399 5.11418 6.92597C5.0388 7.10796 5 7.30302 5 7.5C5 7.69698 5.0388 7.89204 5.11418 8.07403C5.18956 8.25601 5.30005 8.42137 5.43934 8.56066C5.57863 8.69995 5.74399 8.81044 5.92597 8.88582C6.10796 8.9612 6.30302 9 6.5 9Z" fill="#003B71"/>
</svg>
