<svg width="20" height="20" viewBox="0 0 20 20" fill="none" xmlns="http://www.w3.org/2000/svg">
<path d="M4 16.5H5.5V18H4C2.89688 18 2 17.1031 2 16V4C2 2.89688 2.89688 2 4 2H9.17188C9.70312 2 10.2125 2.20938 10.5875 2.58438L13.4156 5.4125C13.7906 5.7875 14 6.29688 14 6.82812V11.5H12.5V7H10C9.44688 7 9 6.55312 9 6V3.5H4C3.725 3.5 3.5 3.725 3.5 4V16C3.5 16.275 3.725 16.5 4 16.5ZM7.5 13H8.5C9.46562 13 10.25 13.7844 10.25 14.75C10.25 15.7156 9.46562 16.5 8.5 16.5H8V17.5C8 17.775 7.775 18 7.5 18C7.225 18 7 17.775 7 17.5V16V13.5C7 13.225 7.225 13 7.5 13ZM8.5 15.5C8.91563 15.5 9.25 15.1656 9.25 14.75C9.25 14.3344 8.91563 14 8.5 14H8V15.5H8.5ZM11.5 13H12.5C13.3281 13 14 13.6719 14 14.5V16.5C14 17.3281 13.3281 18 12.5 18H11.5C11.225 18 11 17.775 11 17.5V13.5C11 13.225 11.225 13 11.5 13ZM12.5 17C12.775 17 13 16.775 13 16.5V14.5C13 14.225 12.775 14 12.5 14H12V17H12.5ZM15 13.5C15 13.225 15.225 13 15.5 13H17C17.275 13 17.5 13.225 17.5 13.5C17.5 13.775 17.275 14 17 14H16V15H17C17.275 15 17.5 15.225 17.5 15.5C17.5 15.775 17.275 16 17 16H16V17.5C16 17.775 15.775 18 15.5 18C15.225 18 15 17.775 15 17.5V15.5V13.5Z" fill="#003B71"/>
</svg>
