<svg width="20" height="20" viewBox="0 0 20 20" fill="none" xmlns="http://www.w3.org/2000/svg">
<path d="M1 2.5C1 1.12109 2.0994 0 3.45161 0H9.58065V5C9.58065 5.69141 10.1284 6.25 10.8065 6.25H15.7097V11.875H7.74194C6.38972 11.875 5.29032 12.9961 5.29032 14.375V20H3.45161C2.0994 20 1 18.8789 1 17.5V2.5ZM15.7097 5H10.8065V0L15.7097 5ZM7.74194 13.75H8.96774C10.1514 13.75 11.1129 14.7305 11.1129 15.9375C11.1129 17.1445 10.1514 18.125 8.96774 18.125H8.35484V19.375C8.35484 19.7188 8.07903 20 7.74194 20C7.40484 20 7.12903 19.7188 7.12903 19.375V17.5V14.375C7.12903 14.0312 7.40484 13.75 7.74194 13.75ZM8.96774 16.875C9.47722 16.875 9.8871 16.457 9.8871 15.9375C9.8871 15.418 9.47722 15 8.96774 15H8.35484V16.875H8.96774ZM12.6452 13.75H13.871C14.8861 13.75 15.7097 14.5898 15.7097 15.625V18.125C15.7097 19.1602 14.8861 20 13.871 20H12.6452C12.3081 20 12.0323 19.7188 12.0323 19.375V14.375C12.0323 14.0312 12.3081 13.75 12.6452 13.75ZM13.871 18.75C14.2081 18.75 14.4839 18.4688 14.4839 18.125V15.625C14.4839 15.2812 14.2081 15 13.871 15H13.2581V18.75H13.871ZM16.9355 14.375C16.9355 14.0312 17.2113 13.75 17.5484 13.75H19.3871C19.7242 13.75 20 14.0312 20 14.375C20 14.7188 19.7242 15 19.3871 15H18.1613V16.25H19.3871C19.7242 16.25 20 16.5312 20 16.875C20 17.2188 19.7242 17.5 19.3871 17.5H18.1613V19.375C18.1613 19.7188 17.8855 20 17.5484 20C17.2113 20 16.9355 19.7188 16.9355 19.375V16.875V14.375Z" fill="#005598"/>
</svg>
