<svg width="22" height="20" viewBox="0 0 22 20" fill="none" xmlns="http://www.w3.org/2000/svg">
<path d="M8.69512 8.20513C7.56829 8.20513 6.60366 7.80342 5.80122 7C4.99878 6.19658 4.59756 5.23077 4.59756 4.10256C4.59756 2.97436 4.99878 2.00855 5.80122 1.20513C6.60366 0.401709 7.56829 0 8.69512 0C9.82195 0 10.7866 0.401709 11.589 1.20513C12.3915 2.00855 12.7927 2.97436 12.7927 4.10256C12.7927 5.23077 12.3915 6.19658 11.589 7C10.7866 7.80342 9.82195 8.20513 8.69512 8.20513ZM8.69512 6.15385C9.25854 6.15385 9.74085 5.95299 10.1421 5.55128C10.5433 5.14957 10.7439 4.66667 10.7439 4.10256C10.7439 3.53846 10.5433 3.05556 10.1421 2.65385C9.74085 2.25214 9.25854 2.05128 8.69512 2.05128C8.13171 2.05128 7.64939 2.25214 7.24817 2.65385C6.84695 3.05556 6.64634 3.53846 6.64634 4.10256C6.64634 4.66667 6.84695 5.14957 7.24817 5.55128C7.64939 5.95299 8.13171 6.15385 8.69512 6.15385ZM20.0659 20L16.7878 16.718C16.4293 16.9231 16.0451 17.094 15.6354 17.2308C15.2256 17.3675 14.7902 17.4359 14.3293 17.4359C13.0488 17.4359 11.9604 16.9872 11.064 16.0897C10.1677 15.1923 9.71951 14.1026 9.71951 12.8205C9.71951 11.5385 10.1677 10.4487 11.064 9.55128C11.9604 8.65385 13.0488 8.20513 14.3293 8.20513C15.6098 8.20513 16.6982 8.65385 17.5945 9.55128C18.4909 10.4487 18.939 11.5385 18.939 12.8205C18.939 13.2821 18.8707 13.7179 18.7341 14.1282C18.5976 14.5385 18.4268 14.9231 18.222 15.2821L21.5 18.5641L20.0659 20ZM14.3293 15.3846C15.0463 15.3846 15.6524 15.1368 16.1476 14.641C16.6427 14.1453 16.8902 13.5385 16.8902 12.8205C16.8902 12.1026 16.6427 11.4957 16.1476 11C15.6524 10.5043 15.0463 10.2564 14.3293 10.2564C13.6122 10.2564 13.0061 10.5043 12.511 11C12.0159 11.4957 11.7683 12.1026 11.7683 12.8205C11.7683 13.5385 12.0159 14.1453 12.511 14.641C13.0061 15.1368 13.6122 15.3846 14.3293 15.3846ZM0.5 16.4103V13.5641C0.5 12.9829 0.645122 12.4444 0.935366 11.9487C1.22561 11.453 1.62683 11.0769 2.13902 10.8205C3.00976 10.3761 3.99146 10 5.08415 9.69231C6.17683 9.38462 7.38902 9.23077 8.72073 9.23077C8.51585 9.53846 8.34085 9.86752 8.19573 10.2179C8.05061 10.5684 7.93537 10.9316 7.85 11.3077C6.82561 11.3932 5.9122 11.5684 5.10976 11.8333C4.30732 12.0983 3.63293 12.3761 3.08659 12.6667C2.91585 12.7521 2.78354 12.8761 2.68963 13.0385C2.59573 13.2009 2.54878 13.3761 2.54878 13.5641V14.359H7.85C7.93537 14.735 8.05061 15.094 8.19573 15.4359C8.34085 15.7778 8.51585 16.1026 8.72073 16.4103H0.5Z" fill="black"/>
</svg>
