<svg width="32" height="32" viewBox="0 0 32 32" fill="none" xmlns="http://www.w3.org/2000/svg">
<path d="M16.0025 3.50177C17.3818 3.50177 18.7047 4.06852 19.68 5.07733C20.6554 6.08615 21.2033 7.4544 21.2033 8.88108C21.2033 10.3078 20.6554 11.676 19.68 12.6848C18.7047 13.6936 17.3818 14.2604 16.0025 14.2604C14.6232 14.2604 13.3003 13.6936 12.325 12.6848C11.3496 11.676 10.8017 10.3078 10.8017 8.88108C10.8017 7.4544 11.3496 6.08615 12.325 5.07733C13.3003 4.06852 14.6232 3.50177 16.0025 3.50177ZM4.80075 7.22591C5.27358 7.22591 5.74179 7.32224 6.17863 7.50939C6.61547 7.69655 7.01239 7.97086 7.34673 8.31668C7.68108 8.6625 7.94629 9.07305 8.12724 9.52488C8.30818 9.97671 8.40131 10.461 8.40131 10.95C8.40131 11.4391 8.30818 11.9234 8.12724 12.3752C7.94629 12.827 7.68108 13.2376 7.34673 13.5834C7.01239 13.9292 6.61547 14.2035 6.17863 14.3907C5.74179 14.5779 5.27358 14.6742 4.80075 14.6742C4.32792 14.6742 3.85971 14.5779 3.42287 14.3907C2.98603 14.2035 2.58911 13.9292 2.25477 13.5834C1.92042 13.2376 1.65521 12.827 1.47426 12.3752C1.29332 11.9234 1.20019 11.4391 1.20019 10.95C1.20019 10.461 1.29332 9.97671 1.47426 9.52488C1.65521 9.07305 1.92042 8.6625 2.25477 8.31668C2.58911 7.97086 2.98603 7.69655 3.42287 7.50939C3.85971 7.32224 4.32792 7.22591 4.80075 7.22591ZM5.53586 27.5018H0L2.40037 17.5707H7.75121L5.66088 26.9432L5.53586 27.5018ZM26.4641 27.5018L26.3391 26.9432L24.2488 17.5707H29.5996L32 27.5018H26.4641ZM23.6037 10.95C23.6037 9.96234 23.983 9.01509 24.6583 8.31668C25.3335 7.61827 26.2493 7.22591 27.2043 7.22591C28.1592 7.22591 29.075 7.61827 29.7502 8.31668C30.4255 9.01509 30.8048 9.96234 30.8048 10.95C30.8048 11.9377 30.4255 12.885 29.7502 13.5834C29.075 14.2818 28.1592 14.6742 27.2043 14.6742C26.2493 14.6742 25.3335 14.2818 24.6583 13.5834C23.983 12.885 23.6037 11.9377 23.6037 10.95ZM10.4016 16.7431H21.6034L24.0037 27.5018H8.00125L10.4016 16.7431Z" fill="black"/>
</svg>
