<svg width="32" height="32" viewBox="0 0 32 32" fill="none" xmlns="http://www.w3.org/2000/svg">
<path d="M32 28H0V2H14L18 5H32V28ZM17.75 10H14.25V11.8188C13.5562 12.05 12.925 12.425 12.3875 12.8938L10.8125 11.9875L9.0625 15.0188L10.6375 15.925C10.5687 16.275 10.5312 16.6313 10.5312 17C10.5312 17.3687 10.5687 17.725 10.6375 18.075L9.0625 18.9813L10.8125 22.0125L12.3875 21.1063C12.925 21.5813 13.5562 21.95 14.25 22.1812V24H17.75V22.1812C18.4438 21.95 19.075 21.575 19.6125 21.1063L21.1875 22.0187L22.9375 18.9875L21.3625 18.0812C21.4312 17.7312 21.4688 17.375 21.4688 17.0063C21.4688 16.6375 21.4312 16.2812 21.3625 15.9312L22.9375 15.025L21.1875 11.9937L19.6125 12.9062C19.075 12.4312 18.4438 12.0625 17.75 11.8313V10.0125V10ZM14 17C14 16.4696 14.2107 15.9609 14.5858 15.5858C14.9609 15.2107 15.4696 15 16 15C16.5304 15 17.0391 15.2107 17.4142 15.5858C17.7893 15.9609 18 16.4696 18 17C18 17.5304 17.7893 18.0391 17.4142 18.4142C17.0391 18.7893 16.5304 19 16 19C15.4696 19 14.9609 18.7893 14.5858 18.4142C14.2107 18.0391 14 17.5304 14 17Z" fill="#18212D"/>
</svg>
