<svg width="20" height="20" viewBox="0 0 20 20" fill="none" xmlns="http://www.w3.org/2000/svg">
<path d="M14.7809 6.28123C15.0746 5.98748 15.0746 5.51248 14.7809 5.22185C14.4871 4.93123 14.0121 4.9281 13.7215 5.22185L10.0027 8.9406L6.28086 5.21873C5.98711 4.92498 5.51211 4.92498 5.22148 5.21873C4.93086 5.51248 4.92773 5.98748 5.22148 6.2781L8.94023 9.99685L5.21836 13.7187C4.92461 14.0125 4.92461 14.4875 5.21836 14.7781C5.51211 15.0687 5.98711 15.0718 6.27773 14.7781L9.99648 11.0594L13.7184 14.7812C14.0121 15.075 14.4871 15.075 14.7777 14.7812C15.0684 14.4875 15.0715 14.0125 14.7777 13.7219L11.059 10.0031L14.7809 6.28123Z" fill="#003B71"/>
</svg>
