<svg width="21" height="22" viewBox="0 0 21 22" fill="none" xmlns="http://www.w3.org/2000/svg">
<path d="M21 19.6131L16.6415 15.2737C17.8552 13.6874 18.5055 11.7449 18.4906 9.75084C18.4981 8.53996 18.2641 7.33963 17.8022 6.21946C17.3403 5.0993 16.6595 4.08159 15.7995 3.22535C14.9395 2.36911 13.9174 1.69138 12.7923 1.23145C11.6672 0.771529 10.4616 0.538567 9.24538 0.546074C8.02918 0.538567 6.82358 0.771529 5.69849 1.23145C4.57341 1.69138 3.55123 2.36911 2.69122 3.22535C1.83122 4.08159 1.15051 5.0993 0.688567 6.21946C0.226622 7.33963 -0.00736404 8.53996 0.000176621 9.75084C-0.00736404 10.9617 0.226622 12.1621 0.688567 13.2822C1.15051 14.4024 1.83122 15.4201 2.69122 16.2763C3.55123 17.1326 4.57341 17.8103 5.69849 18.2702C6.82358 18.7302 8.02918 18.9631 9.24538 18.9556C11.2482 18.9705 13.1992 18.323 14.7925 17.1147L19.151 21.454L21 19.6131ZM2.64166 9.75084C2.63301 8.88503 2.79792 8.02619 3.12672 7.22461C3.45553 6.42302 3.94163 5.69479 4.55657 5.08254C5.17151 4.47028 5.90294 3.98631 6.70805 3.65894C7.51316 3.33158 8.37576 3.1674 9.24538 3.17601C10.115 3.1674 10.9776 3.33158 11.7827 3.65894C12.5878 3.98631 13.3193 4.47028 13.9342 5.08254C14.5491 5.69479 15.0352 6.42302 15.364 7.22461C15.6928 8.02619 15.8578 8.88503 15.8491 9.75084C15.8578 10.6167 15.6928 11.4755 15.364 12.2771C15.0352 13.0787 14.5491 13.8069 13.9342 14.4191C13.3193 15.0314 12.5878 15.5154 11.7827 15.8427C10.9776 16.1701 10.115 16.3343 9.24538 16.3257C8.37576 16.3343 7.51316 16.1701 6.70805 15.8427C5.90294 15.5154 5.17151 15.0314 4.55657 14.4191C3.94163 13.8069 3.45553 13.0787 3.12672 12.2771C2.79792 11.4755 2.63301 10.6167 2.64166 9.75084Z" fill="black"/>
</svg>
