<svg width="24" height="24" viewBox="0 0 24 24" fill="none" xmlns="http://www.w3.org/2000/svg">
<path d="M24 21.8868L19.0189 16.9057C20.4059 15.0848 21.1492 12.855 21.1321 10.5662C21.1407 9.1762 20.8733 7.79837 20.3454 6.51256C19.8174 5.22675 19.0395 4.05855 18.0566 3.07568C17.0738 2.09282 15.9055 1.31487 14.6197 0.786933C13.3339 0.258997 11.9561 -0.00841605 10.5662 0.000201852C9.1762 -0.00841605 7.79837 0.258997 6.51256 0.786933C5.22675 1.31487 4.05855 2.09282 3.07568 3.07568C2.09282 4.05855 1.31487 5.22675 0.786933 6.51256C0.258997 7.79837 -0.00841605 9.1762 0.000201852 10.5662C-0.00841605 11.9561 0.258997 13.3339 0.786933 14.6197C1.31487 15.9056 2.09282 17.0738 3.07568 18.0566C4.05855 19.0395 5.22675 19.8174 6.51256 20.3454C7.79837 20.8733 9.1762 21.1407 10.5662 21.1321C12.855 21.1492 15.0848 20.4059 16.9057 19.0189L21.8868 24L24 21.8868ZM3.01904 10.5662C3.00916 9.5723 3.19762 8.58647 3.5734 7.66634C3.94917 6.74622 4.50472 5.9103 5.20751 5.20751C5.9103 4.50472 6.74622 3.94917 7.66634 3.5734C8.58646 3.19762 9.5723 3.00916 10.5662 3.01904C11.56 3.00916 12.5458 3.19762 13.466 3.5734C14.3861 3.94917 15.222 4.50472 15.9248 5.20751C16.6276 5.9103 17.1831 6.74622 17.5589 7.66634C17.9347 8.58647 18.1231 9.5723 18.1133 10.5662C18.1231 11.56 17.9347 12.5458 17.5589 13.466C17.1831 14.3861 16.6276 15.222 15.9248 15.9248C15.222 16.6276 14.3861 17.1831 13.466 17.5589C12.5458 17.9347 11.56 18.1231 10.5662 18.1133C9.5723 18.1231 8.58646 17.9347 7.66634 17.5589C6.74622 17.1831 5.9103 16.6276 5.20751 15.9248C4.50472 15.222 3.94917 14.3861 3.5734 13.466C3.19762 12.5458 3.00916 11.56 3.01904 10.5662Z" fill="#003B71"/>
</svg>
