<svg width="16" height="16" viewBox="0 0 16 16" fill="none" xmlns="http://www.w3.org/2000/svg">
<path d="M16 14.5625L12.6793 11.2563C13.6039 10.0477 14.0994 8.5677 14.0881 7.04844C14.0938 6.12587 13.9155 5.21133 13.5636 4.35787C13.2116 3.50442 12.693 2.72902 12.0377 2.07664C11.3825 1.42427 10.6037 0.907902 9.74649 0.557484C8.88928 0.207065 7.97073 0.0295701 7.0441 0.0352902C6.11747 0.0295701 5.19892 0.207065 4.34171 0.557484C3.4845 0.907902 2.7057 1.42427 2.05046 2.07664C1.39522 2.72902 0.87658 3.50442 0.524622 4.35787C0.172665 5.21133 -0.0056107 6.12587 0.000134568 7.04844C-0.0056107 7.97102 0.172665 8.88556 0.524622 9.73901C0.87658 10.5925 1.39522 11.3679 2.05046 12.0202C2.7057 12.6726 3.4845 13.189 4.34171 13.5394C5.19892 13.8898 6.11747 14.0673 7.0441 14.0616C8.57003 14.0729 10.0566 13.5796 11.2705 12.659L14.5912 15.9652L16 14.5625ZM2.0127 7.04844C2.00611 6.38878 2.13175 5.73443 2.38226 5.1237C2.63278 4.51296 3.00314 3.95812 3.47167 3.49164C3.9402 3.02516 4.49748 2.65642 5.1109 2.407C5.72431 2.15758 6.38153 2.03249 7.0441 2.03905C7.70667 2.03249 8.36389 2.15758 8.97731 2.407C9.59072 2.65642 10.148 3.02516 10.6165 3.49164C11.0851 3.95812 11.4554 4.51296 11.7059 5.1237C11.9565 5.73443 12.0821 6.38878 12.0755 7.04844C12.0821 7.70811 11.9565 8.36246 11.7059 8.97319C11.4554 9.58392 11.0851 10.1388 10.6165 10.6052C10.148 11.0717 9.59072 11.4405 8.97731 11.6899C8.36389 11.9393 7.70667 12.0644 7.0441 12.0578C6.38153 12.0644 5.72431 11.9393 5.1109 11.6899C4.49748 11.4405 3.9402 11.0717 3.47167 10.6052C3.00314 10.1388 2.63278 9.58392 2.38226 8.97319C2.13175 8.36246 2.00611 7.70811 2.0127 7.04844Z" fill="#D8790D"/>
</svg>
