<svg width="36" height="32" viewBox="0 0 36 32" fill="none" xmlns="http://www.w3.org/2000/svg">
<g clip-path="url(#clip0_8083_4216)">
<path d="M10.65 14.2437C12.775 15.4125 14.65 16.9875 16.1625 18.8813C16.8563 19.75 17.475 20.6875 18 21.6812C18.5312 20.6875 19.1437 19.7563 19.8375 18.8813C21.35 16.9875 23.2188 15.4125 25.35 14.2437C27.9625 12.8125 30.9625 12 34.125 12H36C36 21.9438 27.9438 30 18 30C8.05625 30 0 21.9438 0 12H1.875C5.0375 12 8.0375 12.8125 10.65 14.2437ZM18 2C18 2 22.1437 5.10625 24.4625 11.3188C21.9937 12.5813 19.8 14.3125 18 16.4C16.2 14.3125 14.0063 12.5813 11.5375 11.3188C13.8563 5.10625 18 2 18 2Z" fill="#000"/>
</g>
<defs>
<clipPath id="clip0_8083_4216">
<rect width="36" height="32" fill="white"/>
</clipPath>
</defs>
</svg>
