<svg width="20" height="20" viewBox="0 0 20 20" fill="none" xmlns="http://www.w3.org/2000/svg">
<path d="M5.5 16V4C5.5 3.725 5.725 3.5 6 3.5H11V6C11 6.55312 11.4469 7 12 7H14.5V16C14.5 16.275 14.275 16.5 14 16.5H6C5.725 16.5 5.5 16.275 5.5 16ZM6 2C4.89688 2 4 2.89688 4 4V16C4 17.1031 4.89688 18 6 18H14C15.1031 18 16 17.1031 16 16V6.82812C16 6.29688 15.7906 5.7875 15.4156 5.4125L12.5844 2.58438C12.2094 2.20938 11.7031 2 11.1719 2H6ZM7.71875 9.53438C7.6 9.1375 7.18125 8.9125 6.78437 9.03125C6.3875 9.15 6.1625 9.56875 6.28125 9.96562L7.78125 14.9656C7.875 15.2844 8.16875 15.5 8.5 15.5C8.83125 15.5 9.12187 15.2812 9.21875 14.9656L10 12.3594L10.7812 14.9656C10.875 15.2844 11.1687 15.5 11.5 15.5C11.8313 15.5 12.1219 15.2812 12.2188 14.9656L13.7188 9.96562C13.8375 9.56875 13.6125 9.15 13.2156 9.03125C12.8187 8.9125 12.4 9.1375 12.2812 9.53438L11.5 12.1406L10.7188 9.53438C10.625 9.21563 10.3313 9 10 9C9.66875 9 9.37813 9.21875 9.28125 9.53438L8.5 12.1406L7.71875 9.53438Z" fill="#003B71"/>
</svg>
