<svg width="32" height="32" viewBox="0 0 32 32" fill="none" xmlns="http://www.w3.org/2000/svg">
<path d="M3.28442 31.0999C2.41021 31.0999 1.66183 30.7886 1.03928 30.1661C0.416741 29.5435 0.105469 28.7952 0.105469 27.921V10.4367C0.105469 9.56253 0.416741 8.81416 1.03928 8.19161C1.66183 7.56907 2.41021 7.2578 3.28442 7.2578H9.64231V4.07885C9.64231 3.20464 9.95358 2.45626 10.5761 1.83372C11.1987 1.21117 11.947 0.899902 12.8213 0.899902H19.1792C20.0534 0.899902 20.8017 1.21117 21.4243 1.83372C22.0468 2.45626 22.3581 3.20464 22.3581 4.07885V7.2578H28.716C29.5902 7.2578 30.3386 7.56907 30.9611 8.19161C31.5837 8.81416 31.8949 9.56253 31.8949 10.4367V27.921C31.8949 28.7952 31.5837 29.5435 30.9611 30.1661C30.3386 30.7886 29.5902 31.0999 28.716 31.0999H3.28442ZM3.28442 27.921H28.716V10.4367H3.28442V27.921ZM12.8213 7.2578H19.1792V4.07885H12.8213V7.2578Z" fill="#5B7E15"/>
</svg>
