<svg width="15" height="11" viewBox="0 0 15 11" fill="none" xmlns="http://www.w3.org/2000/svg">
<path d="M14.6844 1.87965C14.5989 1.56091 14.4311 1.27004 14.1979 1.036C13.9646 0.801952 13.674 0.632876 13.3549 0.54559C12.1875 0.231323 7.50035 0.231323 7.50035 0.231323C7.50035 0.231323 2.81254 0.231323 1.63672 0.54559C1.31704 0.63178 1.02581 0.80049 0.792382 1.03471C0.558957 1.26892 0.391595 1.56037 0.307172 1.87965C0.0954992 3.07461 -0.00717531 4.28623 0.000407578 5.49966C-0.00744093 6.7137 0.0980772 7.92583 0.315596 9.12037C0.401122 9.43911 0.568855 9.72997 0.80211 9.96402C1.03537 10.1981 1.32601 10.3671 1.64514 10.4544C2.81254 10.7687 7.50035 10.7687 7.50035 10.7687C7.50035 10.7687 12.1875 10.7687 13.364 10.4544C13.6835 10.3681 13.9746 10.1994 14.2079 9.96516C14.4412 9.73095 14.6085 9.43957 14.6928 9.12037C14.9045 7.92541 15.0072 6.71379 14.9996 5.50036C15.0074 4.28632 14.9019 3.07418 14.6844 1.87965ZM5.96723 7.72612V3.2732L9.88778 5.49966L5.96723 7.72612Z" fill="black"/>
</svg>
